<?xml version="1.0" encoding="UTF-8"?>
<svg version="1.1" xmlns="http://www.w3.org/2000/svg" width="512" height="512">
<path d="M0 0 C1.22783203 0.94359375 1.22783203 0.94359375 2.48046875 1.90625 C9.70854607 7.51404289 16.36890919 13.70959317 23 20 C23.75539063 20.71285156 24.51078125 21.42570312 25.2890625 22.16015625 C30.67644255 27.3865588 35.34332327 33.12279198 40 39 C41.17369141 40.43085938 41.17369141 40.43085938 42.37109375 41.890625 C78.90269007 87.48205721 95.06231132 148.92459289 89.3125 206.6875 C83.60469501 255.94974875 63.46930155 302.11917565 29.46484375 338.34765625 C27.50451132 340.45711064 25.63945317 342.58945942 23.8125 344.8125 C20.56553483 348.6373149 16.8272147 351.77177277 13 355 C11.59427734 356.2375 11.59427734 356.2375 10.16015625 357.5 C-34.88035526 396.9202297 -95.12500268 416.23700686 -154.69702148 412.67749023 C-187.48012702 410.16369235 -219.03956012 401.598596 -248 386 C-248.66338379 385.64824707 -249.32676758 385.29649414 -250.01025391 384.93408203 C-278.84918616 369.57954165 -304.56043436 347.2349102 -324 321 C-324.85023745 319.88019089 -325.7004977 318.7603991 -326.55078125 317.640625 C-333.30890907 308.60100764 -338.73267493 298.96461244 -344 289 C-344.35835938 288.33774414 -344.71671875 287.67548828 -345.0859375 286.99316406 C-372.4741379 236.30954884 -376.79715725 173.28719668 -360.9831543 118.33862305 C-353.97283933 95.22151326 -344.20183319 72.63867094 -330 53 C-329.55930176 52.38560059 -329.11860352 51.77120117 -328.66455078 51.13818359 C-322.69715306 42.85495865 -316.47160702 35.03575228 -309.4609375 27.61328125 C-307.33563966 25.35641735 -305.31275364 23.05431596 -303.3125 20.6875 C-300.52534566 17.48719102 -297.56060405 14.68637704 -294.31640625 11.953125 C-292.63305 10.53376897 -290.97756139 9.08115649 -289.33984375 7.609375 C-212.86732169 -60.50333891 -93.7171082 -64.17322097 0 0 Z M-161.1796875 74.6015625 C-172.25305127 89.19178858 -172.16444532 107.13754459 -172.0625 124.5625 C-172.0574746 126.06314955 -172.05291353 127.56380072 -172.04882812 129.06445312 C-172.03876392 132.70970938 -172.01917439 136.35473527 -172 140 C-180.25 140 -188.5 140 -197 140 C-197 153.86 -197 167.72 -197 182 C-188.75 182 -180.5 182 -172 182 C-172 223.25 -172 264.5 -172 307 C-155.17 307 -138.34 307 -121 307 C-121 265.75 -121 224.5 -121 182 C-109.78 182 -98.56 182 -87 182 C-85.310084 178.620168 -85.38190442 174.77810584 -85.02734375 171.0546875 C-84.93997452 170.1696756 -84.85260529 169.2846637 -84.7625885 168.37283325 C-84.48384744 165.54057171 -84.21061407 162.70780915 -83.9375 159.875 C-83.74971092 157.95699578 -83.56156443 156.03902651 -83.37304688 154.12109375 C-82.91053847 149.41451044 -82.45547589 144.70729036 -82 140 C-94.87 140 -107.74 140 -121 140 C-120.896875 135.17375 -120.79375 130.3475 -120.6875 125.375 C-120.66260498 123.86341309 -120.63770996 122.35182617 -120.61206055 120.79443359 C-120.56239136 118.98966553 -120.56239136 118.98966553 -120.51171875 117.1484375 C-120.48553467 115.92302246 -120.45935059 114.69760742 -120.43237305 113.43505859 C-119.9510734 109.61129464 -119.13295137 107.20834725 -117 104 C-113.1556296 101.69162329 -109.36415794 101.69865935 -104.94921875 101.5859375 C-103.74354248 101.55032715 -102.53786621 101.5147168 -101.2956543 101.47802734 C-99.77496338 101.44402832 -98.25427246 101.4100293 -96.6875 101.375 C-91.840625 101.25125 -86.99375 101.1275 -82 101 C-82 87.14 -82 73.28 -82 59 C-88.56200808 58.90746875 -95.12169378 58.82804329 -101.68383789 58.78027344 C-103.90950245 58.76033107 -106.13511582 58.73316718 -108.3605957 58.69824219 C-128.23028967 58.39454716 -146.62034032 59.21698916 -161.1796875 74.6015625 Z " fill="#D8D9D8" transform="translate(392,77)"/>
</svg>
