<?xml version="1.0" encoding="UTF-8"?>
<svg version="1.1" xmlns="http://www.w3.org/2000/svg" width="512" height="512">
<path d="M0 0 C2.00032805 -0.00599279 4.0006538 -0.01280005 6.00097656 -0.02035522 C11.41053179 -0.03795004 16.82002364 -0.04270796 22.22960472 -0.0439868 C25.61837285 -0.04541312 29.00712511 -0.0496919 32.39588928 -0.05498123 C44.24440525 -0.07346285 56.09287635 -0.08165455 67.94140625 -0.08007812 C78.94251696 -0.07887857 89.94343089 -0.09994938 100.94449186 -0.13156545 C110.42349773 -0.15782511 119.90243974 -0.16844131 129.38148165 -0.16716731 C135.02757987 -0.16666034 140.67350321 -0.172195 146.31956482 -0.19352341 C151.63850584 -0.21306872 156.95710815 -0.21292025 162.27606201 -0.19849014 C164.21283979 -0.1964207 166.14963969 -0.20098954 168.08638 -0.21321106 C184.14711339 -0.30788105 200.14705741 1.27358138 214.95507812 7.97802734 C215.73512207 8.32051514 216.51516602 8.66300293 217.31884766 9.01586914 C245.17347007 21.63580004 266.26599215 44.64575645 277.33349609 73.03417969 C281.10994142 83.56583559 283.29242284 94.52199051 283.28974915 105.70475769 C283.29342583 106.53769028 283.29710252 107.37062286 283.30089062 108.22879583 C283.31188045 111.0126443 283.3157634 113.79645539 283.31958008 116.58032227 C283.32584861 118.57991147 283.33249575 120.57949952 283.3394928 122.5790863 C283.36050095 129.14304804 283.37089675 135.7070099 283.38085938 142.27099609 C283.38490908 144.53714828 283.38902606 146.80330034 283.39320946 149.06945229 C283.41225926 159.72522894 283.42648699 170.38099871 283.43482143 181.03678912 C283.44457321 193.29984056 283.47083976 205.56271051 283.51132232 217.82569808 C283.54159708 227.32582658 283.55630129 236.82590343 283.55960244 246.32607919 C283.56194126 251.98903072 283.57074764 257.65178835 283.59606361 263.31468773 C283.6195468 268.65406669 283.62349715 273.99312688 283.61330223 279.33254433 C283.61281153 281.2773864 283.61899183 283.22224526 283.63285828 285.16703796 C283.74101912 301.25553926 282.17163705 317.26825288 275.45507812 332.10302734 C275.11259033 332.88307129 274.77010254 333.66311523 274.41723633 334.46679688 C262.1217834 361.6052338 239.80203692 382.83973878 212.03857422 393.58398438 C207.13878262 395.40989178 202.22114336 397.04305672 197.14257812 398.29052734 C196.13512338 398.54187659 196.13512338 398.54187659 195.10731602 398.7983036 C185.56443816 400.86029757 175.97979455 400.58687302 166.26928711 400.58105469 C164.26733654 400.58704743 162.26538827 400.59385468 160.26344299 400.60140991 C154.84982282 400.6190041 149.43626597 400.62376259 144.02261996 400.62504148 C140.63184952 400.62646771 137.24109493 400.63074629 133.85032845 400.63603592 C121.99648145 400.65451652 110.14267929 400.66270926 98.28881836 400.66113281 C87.27973534 400.65993291 76.27084883 400.68101073 65.26181549 400.71262014 C55.77772975 400.73887014 46.29370784 400.74949642 36.80958611 400.74822199 C31.15960745 400.7477148 25.50980349 400.75326272 19.85986137 400.77457809 C14.53846113 400.79410728 9.21739956 400.79398566 3.89598656 400.77954483 C1.95717619 400.77747351 0.0183438 400.78205586 -1.92042923 400.79426575 C-30.17022709 400.96046803 -56.29230011 392.99460476 -77.85742188 374.29052734 C-78.66566406 373.62666016 -79.47390625 372.96279297 -80.30664062 372.27880859 C-94.49670225 360.22728059 -104.92223626 344.17596179 -111.23242188 326.72802734 C-111.45905518 326.10500732 -111.68568848 325.4819873 -111.91918945 324.84008789 C-116.59494032 310.94999532 -117.29925927 297.48566159 -117.26147461 282.97900391 C-117.26718983 280.97808453 -117.27415851 278.97716841 -117.28227234 276.97625732 C-117.30009403 271.58343215 -117.29905588 266.19077068 -117.29332995 260.797925 C-117.29022133 256.27565415 -117.29634923 251.75341399 -117.3023687 247.23114753 C-117.31637701 236.5507191 -117.3148842 225.87037071 -117.3034668 215.18994141 C-117.2919963 204.218275 -117.30605189 193.24685336 -117.33286327 182.2752192 C-117.35510923 172.81310961 -117.36163749 163.35107634 -117.35578686 153.88894248 C-117.35243644 148.25632852 -117.35470342 142.62387126 -117.37203789 136.9912796 C-117.38764691 131.68868562 -117.38339868 126.38645046 -117.36473274 121.08386993 C-117.36108477 119.15354474 -117.36404243 117.22319212 -117.37461853 115.29289246 C-117.45568471 99.25495721 -115.86442273 83.26408242 -109.16992188 68.47802734 C-108.65619019 67.30796143 -108.65619019 67.30796143 -108.13208008 66.11425781 C-95.83662715 38.97582089 -73.51688067 17.74131591 -45.75341797 6.99707031 C-40.85362637 5.17116291 -35.93598711 3.53799796 -30.85742188 2.29052734 C-30.18560127 2.12296118 -29.51378067 1.95539501 -28.82160187 1.78275108 C-19.28370342 -0.27779936 -9.70538707 -0.00582016 0 0 Z M41.14257812 152.29052734 C40.42585938 152.89509766 39.70914063 153.49966797 38.97070312 154.12255859 C28.76403022 163.51823618 21.00544872 177.68402524 19.96557617 191.67138672 C19.67831671 203.21669926 19.4747293 213.53151841 24.14257812 224.29052734 C24.50480469 225.16580078 24.86703125 226.04107422 25.24023438 226.94287109 C32.27572405 242.42094837 45.62416046 254.12901508 61.20507812 260.54052734 C78.22926079 266.25527413 96.25641381 265.09552557 112.38330078 257.22949219 C127.85147277 248.97379007 138.66289749 235.16708342 144.38085938 218.83349609 C148.39667824 205.42683928 147.70838708 189.09552572 142.14257812 176.29052734 C141.58183594 174.96021484 141.58183594 174.96021484 141.00976562 173.60302734 C133.91285105 158.18721291 120.58346685 145.92067711 104.68945312 140.00537109 C81.91727168 133.00819199 59.4025726 136.82843525 41.14257812 152.29052734 Z " fill="#000000" transform="translate(172.857421875,55.70947265625)"/>
</svg>
