<?xml version="1.0" encoding="UTF-8"?>
<svg version="1.1" xmlns="http://www.w3.org/2000/svg" width="512" height="512">
<path d="M0 0 C1.75553889 1.49031359 3.48696358 3.00971951 5.1875 4.5625 C8.4575655 7.30120079 8.4575655 7.30120079 12.49609375 8.26953125 C15.50426787 7.81808164 18.12979339 7.01533559 21 6 C21.62777344 5.78939941 22.25554687 5.57879883 22.90234375 5.36181641 C30.41361055 2.82982748 37.60040498 0.08972018 44.30078125 -4.21484375 C46 -5 46 -5 49 -4 C45.18166 7.5806233 38.13510037 16.97998231 29 25 C28.34 25.33 27.68 25.66 27 26 C32.68505864 25.44039691 37.72223865 24.32174034 43.125 22.5 C47.71941545 20.96852818 52.18572145 19.65990111 57 19 C52.67926856 26.01483458 47.65774944 32.02517879 42 38 C41.37738281 38.66386719 40.75476563 39.32773438 40.11328125 40.01171875 C35.54799654 44.74114853 35.54799654 44.74114853 33.27319336 45.81567383 C31.00424569 47.00916989 29.62174217 47.99607214 28 50 C26.8926395 54.65555432 26.89106721 59.29276672 26.8125 64.0625 C26.709312 66.79142198 26.57700646 69.51861101 26.44140625 72.24609375 C26.41021698 72.91882324 26.37902771 73.59155273 26.34689331 74.28466797 C25.90344469 83.09158178 24.19525306 91.48313204 22 100 C21.79922852 100.79986328 21.59845703 101.59972656 21.39160156 102.42382812 C13.68186337 132.43122207 -1.80007939 158.59387701 -23 181 C-24.15242188 182.23169922 -24.15242188 182.23169922 -25.328125 183.48828125 C-55.7272233 215.01508804 -99.83345051 230.29492702 -142.93505859 231.16674805 C-172.34363689 231.45361162 -215.29005166 225.70274158 -237.70678711 204.3762207 C-238.13354736 203.92206787 -238.56030762 203.46791504 -239 203 C-238.19071045 202.9906543 -237.3814209 202.98130859 -236.54760742 202.97167969 C-206.00783731 202.52979636 -176.8640265 198.40606946 -152 179 C-153.34578125 178.814375 -153.34578125 178.814375 -154.71875 178.625 C-172.88872242 175.62169877 -187.36438173 167.29400689 -198.46484375 152.3359375 C-201.78878134 147.27813933 -204.71991621 141.95102782 -206 136 C-204.38931641 136.01740234 -204.38931641 136.01740234 -202.74609375 136.03515625 C-201.30989759 136.04454315 -199.87369952 136.05364238 -198.4375 136.0625 C-197.73302734 136.07087891 -197.02855469 136.07925781 -196.30273438 136.08789062 C-191.75975202 136.10882603 -187.48215108 135.74800682 -183 135 C-183.71542969 134.74347656 -184.43085938 134.48695313 -185.16796875 134.22265625 C-202.66087744 127.50157749 -214.44546387 116.96781669 -222.30078125 100.00390625 C-226.0457012 91.46467686 -227.55554014 83.30015337 -227 74 C-226.18917969 74.33773437 -225.37835938 74.67546875 -224.54296875 75.0234375 C-217.4007052 77.90029802 -210.63514194 79.97484066 -203 81 C-203.54527344 80.58492188 -204.09054688 80.16984375 -204.65234375 79.7421875 C-217.59151989 69.16966409 -224.80334757 54.35053622 -226.80859375 37.875 C-227.39598915 25.98324012 -225.78023783 13.56565728 -220 3 C-219.01 2.34 -218.02 1.68 -217 1 C-215.98292969 2.12535156 -215.98292969 2.12535156 -214.9453125 3.2734375 C-201.33759372 18.27201409 -187.61929351 30.85866245 -170 41 C-169.43087891 41.33241699 -168.86175781 41.66483398 -168.27539062 42.00732422 C-145.28799911 55.33159194 -120.19473026 61.16250258 -94 64 C-94.33 63.01 -94.66 62.02 -95 61 C-96.59580603 43.38010028 -93.80372287 27.00811962 -82.51953125 12.8984375 C-61.25527022 -11.82007186 -27.97399719 -17.16815712 0 0 Z " fill="#959595" transform="translate(347,150)"/>
<path d="M0 0 C0.74327545 -0.00067474 1.4865509 -0.00134949 2.25234985 -0.00204468 C60.89627934 0.08179617 117.47267458 20.18536904 162.9375 57.25 C163.48825195 57.69778809 164.03900391 58.14557617 164.60644531 58.60693359 C177.97024494 69.56068047 190.36916543 81.55249375 200.9375 95.25 C201.72253906 96.2296875 202.50757813 97.209375 203.31640625 98.21875 C235.48301751 138.62199205 256.8743138 192.23779581 257.140625 244.26171875 C257.14768463 245.18436523 257.15474426 246.10701172 257.16201782 247.05761719 C257.38898416 285.42016947 257.38898416 285.42016947 253.9375 302.25 C253.63150879 303.78696533 253.63150879 303.78696533 253.31933594 305.35498047 C241.53981063 363.249547 210.89621163 418.50528994 163.9375 455.25 C162.86971387 456.11809712 161.80336861 456.9879688 160.73828125 457.859375 C137.07267324 477.07036083 109.89588436 491.36679481 81.0625 501.125 C80.29252686 501.38692139 79.52255371 501.64884277 78.72924805 501.91870117 C76.14666004 502.75627549 73.54834077 503.50460999 70.9375 504.25 C69.81371948 504.58237671 68.68993896 504.91475342 67.53210449 505.25720215 C55.01393511 508.71719702 42.8168385 508.87007652 29.8984375 508.8515625 C27.60128477 508.85936279 25.30413487 508.86803741 23.00698853 508.87753296 C18.21468724 508.89236275 13.42268084 508.89194572 8.63037109 508.88134766 C2.55569348 508.86978997 -3.51775819 508.90358793 -9.59223366 508.950037 C-14.33188675 508.97982368 -19.07125542 508.98121304 -23.81098557 508.97501755 C-26.04719843 508.97602904 -28.28343051 508.98621617 -30.51955032 509.00664139 C-46.23692839 509.13259248 -60.07235422 506.98035339 -75.0625 502.25 C-76.39602446 501.83138639 -76.39602446 501.83138639 -77.7564888 501.40431595 C-98.24354566 494.90415331 -117.98248634 485.89239908 -136.0625 474.25 C-136.72652832 473.82251465 -137.39055664 473.3950293 -138.07470703 472.95458984 C-153.59820042 462.84165027 -167.68495964 451.03626786 -181.0625 438.25 C-181.81015625 437.54359375 -182.5578125 436.8371875 -183.328125 436.109375 C-188.72707065 430.88047488 -193.37372005 425.11305699 -198.0625 419.25 C-198.98095703 418.1671875 -198.98095703 418.1671875 -199.91796875 417.0625 C-226.53540659 385.28048467 -242.98879223 346.23782246 -251.3125 305.9375 C-251.53933472 304.84755737 -251.53933472 304.84755737 -251.77075195 303.7355957 C-254.78525848 288.23071714 -255.43501733 272.88028816 -255.375 257.125 C-255.37317719 256.13176727 -255.37135437 255.13853455 -255.36947632 254.11520386 C-255.32475311 239.64425837 -254.96080215 225.47474467 -252.0625 211.25 C-251.88025879 210.3336377 -251.69801758 209.41727539 -251.51025391 208.47314453 C-250.19860223 202.02008127 -248.69642752 195.62855368 -247.0625 189.25 C-246.87461914 188.50588867 -246.68673828 187.76177734 -246.49316406 186.99511719 C-241.75486454 168.59091992 -234.03392824 150.96537736 -225.0625 134.25 C-224.74990234 133.66347656 -224.43730469 133.07695312 -224.11523438 132.47265625 C-212.9493646 111.71292321 -198.29696178 93.26099807 -182.0625 76.25 C-181.23105469 75.37730469 -180.39960938 74.50460938 -179.54296875 73.60546875 C-174.2400502 68.16893336 -168.68709335 63.21968336 -162.70703125 58.53955078 C-161.53614387 57.62140542 -160.36996216 56.69724546 -159.20703125 55.76904297 C-148.65407854 47.35415165 -137.80088739 39.91382938 -126.0625 33.25 C-125.26392578 32.79383301 -124.46535156 32.33766602 -123.64257812 31.86767578 C-85.88367522 10.54807388 -43.26348173 0.03559192 0 0 Z M-90.0625 45.25 C-91.16319824 45.70947021 -91.16319824 45.70947021 -92.28613281 46.17822266 C-114.07721282 55.43368137 -134.61025825 69.1269115 -151.91796875 85.2578125 C-153.85467432 87.05693789 -155.84398736 88.74709196 -157.875 90.4375 C-168.18243934 99.45390653 -177.1110052 110.1396922 -185.0625 121.25 C-185.51947266 121.88292969 -185.97644531 122.51585938 -186.44726562 123.16796875 C-222.23634475 173.24362208 -235.69618626 234.694058 -226.0625 295.25 C-218.69817426 338.30883228 -199.249694 377.84169675 -170.0625 410.25 C-169.54623047 410.8279834 -169.02996094 411.4059668 -168.49804688 412.00146484 C-162.68602999 418.49227057 -156.82466295 424.73261331 -150.0625 430.25 C-148.91225634 431.22336297 -147.7625732 432.19738849 -146.61328125 433.171875 C-117.4350828 457.66764988 -83.38589487 473.80627245 -46.25 482.0625 C-44.94627441 482.35483521 -44.94627441 482.35483521 -43.61621094 482.65307617 C-28.93890171 485.73781262 -14.33039521 486.63127733 0.625 486.5625 C1.45410889 486.56067719 2.28321777 486.55885437 3.13745117 486.55697632 C16.27982614 486.50850552 29.01908417 485.82607664 41.9375 483.25 C42.81647949 483.08371094 43.69545898 482.91742188 44.60107422 482.74609375 C93.5234664 473.32620009 142.07135922 447.14000012 173.9375 408.25 C174.66839844 407.40695312 175.39929688 406.56390625 176.15234375 405.6953125 C214.96543226 360.44403396 234.8669661 300.51319416 230.71044922 240.99902344 C226.4077685 189.8980499 206.95001384 141.362515 172 103.5 C170.18692906 101.52210442 168.46710986 99.49803183 166.75 97.4375 C153.2413846 82.03891776 136.38459741 69.80186613 118.9375 59.25 C118.34598145 58.88841797 117.75446289 58.52683594 117.14501953 58.15429688 C95.49453911 45.04260406 71.74864744 36.30383009 47.0625 30.9375 C46.38735352 30.79006348 45.71220703 30.64262695 45.01660156 30.49072266 C30.63186397 27.59817641 16.19545598 26.84019604 1.5625 26.875 C0.69376251 26.87554382 -0.17497498 26.87608765 -1.07003784 26.87664795 C-32.09807737 26.96537554 -61.45690844 33.22542281 -90.0625 45.25 Z " fill="#959595" transform="translate(255.0625,3.75)"/>
</svg>
